<?xml version="1.0" encoding="utf-8"?>
<svg version="1.2" baseProfile="tiny-ps" xmlns="http://www.w3.org/2000/svg" width="180px" height="180px" viewBox="0 0 180 180" preserveAspectRatio="xMidYMid meet">
 <g fill="#64a3f4">
  <path d="M83.5 151.9 c-25.8 -2.7 -47.3 -21.2 -54 -46.4 -2.1 -8 -2.1 -22.4 0 -30.5 5.8 -22.3 23 -39.7 45 -45.5 8 -2.1 22.4 -2.1 30.5 0 22.3 5.8 39.7 23 45.5 45 2.1 8 2.1 22.4 0 30.5 -7.9 30.4 -36.1 50.2 -67 46.9z"/>
 </g>
 <g fill="#ffffff">
  <path d="M59.3 115.4 c-0.9 -0.4 -1.3 -3.9 -1.3 -12.3 0 -11.4 0.1 -11.9 2.9 -15.8 1.6 -2.2 3.2 -5 3.6 -6.4 1.7 -5.5 6 -12.1 9.4 -14.2 3.2 -2 4.9 -2.2 15.6 -2.2 9.8 0 12.7 0.4 15.8 1.9 4.1 2 7.9 7.2 10.3 13.9 0.8 2.2 2.6 5.5 3.9 7.3 2.3 3.1 2.5 4 2.5 15.3 0 11.9 0 12.1 -2.4 12.7 -1.3 0.3 -3.7 0.4 -5.2 0.2 -2.5 -0.2 -2.9 -0.8 -3.2 -3.5 l-0.3 -3.3 -20.3 0 -20.2 0 -0.9 3.3 c-0.9 2.9 -1.4 3.2 -5 3.4 -2.2 0.1 -4.6 0 -5.2 -0.3z m19.1 -17.3 c0.3 -0.5 -0.4 -2 -1.5 -3.5 -1.8 -2.3 -2.8 -2.6 -8 -2.6 -5.8 0 -5.9 0 -5.9 2.8 0 1.6 0.3 3.2 0.7 3.5 1 1 14.1 0.8 14.7 -0.2z m38.6 -0.6 c0.6 -0.8 0.9 -2.3 0.5 -3.5 -0.5 -1.7 -1.5 -2 -6.2 -2 -6.1 0 -9.3 1.8 -9.3 5.2 0 1.6 0.9 1.8 6.9 1.8 4.8 0 7.2 -0.4 8.1 -1.5z m-7 -14 c0 -1.8 -4.4 -8.6 -6.6 -10.4 -2.3 -1.8 -4 -2.1 -13.5 -2.1 -9.9 0 -11 0.2 -13.6 2.4 -1.6 1.4 -3.7 4.3 -4.5 6.5 l-1.6 4.1 19.9 0 c10.9 0 19.9 -0.2 19.9 -0.5z"/>
  <path d="M53.4 82.5 c-1 -2.6 0.4 -4.5 3.5 -4.5 2.8 0 4.1 1.4 4.1 4.6 0 2 -6.9 1.9 -7.6 -0.1z"/>
  <path d="M119 82.2 c0 -2.4 1.9 -4.2 4.5 -4.2 3.1 0 4.6 1.9 3.4 4.2 -1.4 2.5 -7.9 2.6 -7.9 0z"/>
 </g>
</svg>